<svg viewBox="0 0 24 24" fill="currentColor" xmlns="http://www.w3.org/2000/svg">
<path fill-rule="evenodd" clip-rule="evenodd" d="M13.4114 12.2081L18.1551 16.9518C18.3426 17.1394 18.448 17.3937 18.448 17.659C18.448 17.9242 18.3426 18.1785 18.1551 18.3661L17.448 19.0732L6.13428 7.75946C5.7592 7.38438 5.54849 6.87568 5.54849 6.34524C5.54849 5.81481 5.7592 5.3061 6.13428 4.93103L12.0009 10.7976L16.9495 5.83999C17.1368 5.65374 17.3903 5.54919 17.6545 5.54919C17.9187 5.54919 18.1721 5.65374 18.3595 5.83999L19.0695 6.54999L13.4114 12.2081ZM10.0897 12.71L4.92969 17.86C5.11543 18.0459 5.33601 18.1934 5.57881 18.2941C5.8216 18.3947 6.08186 18.4465 6.34469 18.4465C6.60752 18.4465 6.86777 18.3947 7.11057 18.2941C7.35336 18.1934 7.57394 18.0459 7.75969 17.86L11.4997 14.12L10.0897 12.71Z"/>
</svg>
