<svg viewBox="0 0 24 24" fill="currentColor" xmlns="http://www.w3.org/2000/svg">
	<path d="M23.1912 16.5516L21.0914 15.3392C21.3774 14.444 21.5324 13.4901 21.5324 12.4996C21.5324 11.5091 21.3774 10.5556 21.0914 9.65998L23.1912 8.44753C23.4139 8.31889 23.4904 8.03365 23.3617 7.81089L21.8472 5.18747C21.7186 4.96471 21.4333 4.88826 21.2106 5.0169L19.1091 6.23018C17.828 4.82168 16.1215 3.80774 14.1927 3.39057V0.966075C14.1927 0.708789 13.9839 0.5 13.7266 0.5H10.6976C10.4403 0.5 10.2315 0.708789 10.2315 0.966075V3.39139C8.30266 3.80897 6.59577 4.82291 5.3151 6.231L3.21365 5.01772C2.99088 4.88908 2.70565 4.96553 2.57701 5.18829L1.06247 7.81171C0.933823 8.03447 1.01027 8.31971 1.23303 8.44835L3.33284 9.66039C3.04678 10.5556 2.89183 11.5095 2.89183 12.5C2.89183 13.4905 3.04678 14.444 3.33284 15.3396L1.23303 16.5516C1.01027 16.6803 0.933823 16.9655 1.06247 17.1883L2.57701 19.8117C2.70565 20.0345 2.99088 20.1109 3.21365 19.9823L5.3151 18.769C6.59619 20.1775 8.30266 21.1914 10.2315 21.6086V24.0339C10.2315 24.2912 10.4403 24.5 10.6976 24.5H13.7266C13.9839 24.5 14.1927 24.2912 14.1927 24.0339V21.6086C16.1215 21.191 17.8284 20.1771 19.1091 18.769L21.2106 19.9823C21.4333 20.1109 21.7186 20.0345 21.8472 19.8117L23.3617 17.1883C23.4904 16.9655 23.4139 16.6803 23.1912 16.5516ZM12.2125 20.0731C8.03017 20.0731 4.63982 16.6828 4.63982 12.5004C4.63982 8.31806 8.03017 4.92772 12.2121 4.92772C16.394 4.92772 19.7848 8.31806 19.7848 12.5004C19.7848 16.6828 16.3945 20.0731 12.2121 20.0731H12.2125Z" />
	<path d="M12.2118 14.8299C13.4986 14.8299 14.5418 13.7867 14.5418 12.4999C14.5418 11.2131 13.4986 10.1699 12.2118 10.1699C10.925 10.1699 9.88184 11.2131 9.88184 12.4999C9.88184 13.7867 10.925 14.8299 12.2118 14.8299Z" />
</svg>
