<svg viewBox="0 0 24 24" fill="currentColor" xmlns="http://www.w3.org/2000/svg">
<path fill-rule="evenodd" clip-rule="evenodd" d="M16 9.5C16 13.0899 13.0899 16 9.5 16C5.91015 16 3 13.0899 3 9.5C3 5.91015 5.91015 3 9.5 3C13.0899 3 16 5.91015 16 9.5ZM14 9.5C14 11.9853 11.9853 14 9.5 14C7.01472 14 5 11.9853 5 9.5C5 7.01472 7.01472 5 9.5 5C11.9853 5 14 7.01472 14 9.5Z"/>
<path d="M19.2897 21L16.0697 17.78C15.5079 17.2175 15.1924 16.455 15.1924 15.66C15.1924 14.865 15.5079 14.1025 16.0697 13.54V13.54L20.3497 17.82C20.49 17.9586 20.6014 18.1236 20.6774 18.3056C20.7535 18.4876 20.7926 18.6828 20.7926 18.88C20.7926 19.0772 20.7535 19.2724 20.6774 19.4544C20.6014 19.6363 20.49 19.8014 20.3497 19.94L19.2897 21Z"/>
</svg>
